<svg width="17" height="20" viewBox="0 0 17 20" fill="none" xmlns="http://www.w3.org/2000/svg">
<path d="M8.73235 20C9.86056 20 10.7836 19.0769 10.7836 17.9487H6.68107C6.68107 19.0769 7.60415 20 8.73235 20ZM14.8862 13.8462V8.71795C14.8862 5.56923 13.2144 2.93333 10.2708 2.2359V1.53846C10.2708 0.68718 9.58363 0 8.73235 0C7.88107 0 7.19389 0.68718 7.19389 1.53846V2.2359C4.26056 2.93333 2.5785 5.55897 2.5785 8.71795V13.8462L0.527222 15.8974V16.9231H16.9375V15.8974L14.8862 13.8462ZM12.8349 14.8718H4.62979V8.71795C4.62979 6.17436 6.1785 4.10256 8.73235 4.10256C11.2862 4.10256 12.8349 6.17436 12.8349 8.71795V14.8718Z" fill="#A2ACBE"/>
</svg>
