<svg width="19" height="20" viewBox="0 0 19 20" fill="none" xmlns="http://www.w3.org/2000/svg">
<path d="M16.5272 2H15.5272V0H13.5272V2H5.52722V0H3.52722V2H2.52722C1.41722 2 0.537222 2.9 0.537222 4L0.527222 18C0.527222 19.1 1.41722 20 2.52722 20H16.5272C17.6272 20 18.5272 19.1 18.5272 18V4C18.5272 2.9 17.6272 2 16.5272 2ZM16.5272 18H2.52722V8H16.5272V18ZM16.5272 6H2.52722V4H16.5272V6ZM6.52722 12H4.52722V10H6.52722V12ZM10.5272 12H8.52722V10H10.5272V12ZM14.5272 12H12.5272V10H14.5272V12ZM6.52722 16H4.52722V14H6.52722V16ZM10.5272 16H8.52722V14H10.5272V16ZM14.5272 16H12.5272V14H14.5272V16Z" fill="#A2ACBE"/>
</svg>
