<svg width="46" height="45" viewBox="0 0 46 45" fill="none" xmlns="http://www.w3.org/2000/svg">
<rect x="0.5" width="45" height="45" rx="5" fill="#399BE2"/>
<path d="M31.3903 16.3839L27.2968 12.2904C27.0935 12.0871 26.8323 12 26.5419 12H15.0742C14.4645 12 14 12.4645 14 13.0742V32.5258C14 33.1355 14.4645 33.6 15.0742 33.6H30.6645C31.2742 33.6 31.7387 33.1355 31.7387 32.5258V17.1678C31.6806 16.8774 31.5935 16.5871 31.3903 16.3839ZM26.1355 13.9452L29.7645 17.5742H26.1355V13.9452ZM15.5387 32.0904V13.4516H24.5097V17.9807C24.5097 18.6194 25.0032 19.0839 25.6129 19.0839H30.1419V32.0613L15.5387 32.0904Z" fill="white"/>
</svg>
