<svg width="46" height="45" viewBox="0 0 46 45" fill="none" xmlns="http://www.w3.org/2000/svg">
<rect x="0.5" width="45" height="45" rx="5" fill="#399BE2"/>
<path d="M33.7709 18.1514C33.7709 17.5118 33.3639 17.0176 32.8406 17.0176H23.218L21.0667 13.8198C20.8923 13.6163 20.6306 13.5 20.3981 13.5H13.1593C12.636 13.5 12.2 14.0233 12.2 14.6919V30.9428C12.2 31.5824 12.636 32.0766 13.1593 32.1347H32.8406C33.2767 32.1347 33.6837 31.7568 33.7709 31.2335C33.7709 18.4131 33.8 25.7972 33.8 19.6631L33.7709 18.1514ZM32.2592 18.6166V30.5939L13.6826 30.5358V15.0117L20.1655 15.0989L22.404 18.4131C22.5203 18.5584 22.6947 18.6456 22.8401 18.6456H32.2592V18.6166Z" fill="white"/>
</svg>
