<svg width="46" height="45" viewBox="0 0 46 45" fill="none" xmlns="http://www.w3.org/2000/svg">
<rect x="0.5" width="45" height="45" rx="5" fill="#F7634D"/>
<path d="M31.7409 31.4129V13.6161C31.7409 13.3839 31.6248 13.1807 31.3635 13.0355L28.8377 11.7581C28.7506 11.729 28.6345 11.7 28.5474 11.7H14.6409C14.2635 11.729 14.0022 11.9903 14.0022 12.3387V32.6613C13.9732 32.9516 14.2345 33.271 14.6409 33.3H28.5474C28.6345 33.3 28.7506 33.271 28.8377 33.2419L31.3635 31.9645C31.6248 31.8484 31.7409 31.6452 31.7409 31.4129ZM30.2312 30.8613L28.9538 31.5V28.4516L30.2312 27.8129V30.8613ZM30.2312 26.1L28.9538 26.7387V23.6903L30.2312 23.0516V26.1ZM30.2312 21.4258L28.9538 22.0645V19.0161L30.2312 18.3774V21.4258ZM29.9119 16.8387L27.8216 17.7097C27.6183 17.8549 27.4441 18.0581 27.4441 18.2903V31.7613H15.5409V13.2097H28.1699L29.8828 14.0226L29.9119 16.8387Z" fill="white"/>
</svg>
