<svg width="46" height="45" viewBox="0 0 46 45" fill="none" xmlns="http://www.w3.org/2000/svg">
<rect x="0.5" width="45" height="45" rx="5" fill="#399BE2"/>
<path d="M33.4874 19.5769V17.9327C34.5835 17.9327 35.4862 17.03 35.4862 15.9338V13.4514C35.4862 12.3552 34.5835 11.4525 33.4874 11.4525H31.0049C29.9088 11.4525 29.0061 12.3552 29.0061 13.4514V14.0639H18.8829C18.6249 12.0328 16.755 10.7755 14.724 11.0334C12.8541 11.2591 11.5 12.8066 11.5 14.6765C11.5 16.7398 13.1765 18.3518 15.2398 18.3518C16.9485 18.3518 18.3993 17.3523 18.8184 15.7404H29.0705V15.9016C29.0705 16.9977 29.9733 17.9004 31.0694 17.9004H31.8109V19.2545C31.8109 20.8342 30.1667 22.1238 28.458 22.1238H19.0118C16.2392 22.1238 13.9502 24.1871 13.9502 26.734V28.1526H13.7568C12.6606 28.1526 11.7579 29.0553 11.7579 30.1514V32.6339C11.7579 33.73 12.6606 34.6327 13.7568 34.6327H16.2715C17.3676 34.6327 18.2703 33.73 18.2703 32.6339V32.247H28.1678C28.5547 34.2136 30.4568 35.3098 32.4235 34.9229C34.0999 34.6005 35.1961 33.0852 35.1961 31.4088C35.1961 29.4099 33.713 27.798 31.7142 27.798C29.9733 27.798 28.5225 28.8619 28.1678 30.5706H18.2381V30.1837C18.2381 29.0875 17.3354 28.1848 16.2392 28.1848H15.6589V26.9275C15.6589 25.3478 17.3031 23.8325 18.9796 23.8325H28.4258C31.1661 23.8647 33.4874 22.1238 33.4874 19.5769ZM15.1753 16.6431C14.0792 16.6431 13.1765 15.7404 13.1765 14.6765C13.1765 13.5803 14.0792 12.6776 15.1431 12.6776C16.2392 12.6776 17.1419 13.5803 17.1419 14.6442C17.1742 15.8048 16.2715 16.6431 15.1753 16.6431ZM30.9727 16.224C30.7792 16.224 30.6825 16.095 30.6825 15.9338V13.4514C30.6825 13.2579 30.8115 13.1612 30.9727 13.1612H33.4874C33.6808 13.1612 33.7775 13.2902 33.7775 13.4514V15.9338C33.7775 16.1272 33.6486 16.224 33.4874 16.224H30.9727ZM31.6175 29.5389C32.6491 29.5389 33.5196 30.3771 33.5196 31.441C33.5196 32.4727 32.6814 33.3432 31.6175 33.3432C30.5536 33.3432 29.7153 32.5049 29.7153 31.441C29.7153 30.3449 30.5536 29.5389 31.6175 29.5389ZM16.207 29.829C16.4004 29.829 16.5294 29.958 16.5294 30.1192V32.6339C16.5294 32.8273 16.4004 32.924 16.207 32.924H13.6923C13.4989 32.924 13.3699 32.7951 13.3699 32.6339V30.1192C13.3699 29.9258 13.4989 29.829 13.6923 29.829H16.207Z" fill="white"/>
</svg>
