<svg width="15" height="19" viewBox="0 0 15 19" fill="none" xmlns="http://www.w3.org/2000/svg">
<path d="M1.83333 6.33333H2.7381V4.52381C2.7381 2.02667 4.76476 0 7.2619 0C9.75905 0 11.7857 2.02667 11.7857 4.52381H9.97619C9.97619 3.0219 8.76381 1.80952 7.2619 1.80952C5.76 1.80952 4.54762 3.0219 4.54762 4.52381V6.33333H12.6905C13.6857 6.33333 14.5 7.14762 14.5 8.14286V17.1905C14.5 18.1857 13.6857 19 12.6905 19H1.83333C0.838095 19 0.0238094 18.1857 0.0238094 17.1905V8.14286C0.0238094 7.14762 0.838095 6.33333 1.83333 6.33333ZM1.83333 17.1905H12.6905V8.14286H1.83333V17.1905ZM7.2619 14.4762C6.26667 14.4762 5.45238 13.6619 5.45238 12.6667C5.45238 11.6714 6.26667 10.8571 7.2619 10.8571C8.25714 10.8571 9.07143 11.6714 9.07143 12.6667C9.07143 13.6619 8.25714 14.4762 7.2619 14.4762Z" fill="#8593AB"/>
</svg>
