<svg width="46" height="45" viewBox="0 0 46 45" fill="none" xmlns="http://www.w3.org/2000/svg">
<rect x="0.5" width="45" height="45" rx="5" fill="#EB66A2"/>
<path d="M22.7443 35C22.421 35 22.13 34.7419 22.13 34.4194V34.3871V31.6452H15.5346C14.9526 31.6452 14.5 31.1935 14.5 30.6129V12.0323C14.5 11.4516 14.9526 11 15.5346 11H26.5269C26.7856 11 27.0766 11.0968 27.2382 11.2903L31.1502 15.1935C31.3442 15.3871 31.4412 15.6452 31.4412 15.9032V30.5806C31.4412 31.1613 30.9885 31.6129 30.4066 31.6129H23.7788V34.3548C23.7788 34.7097 23.4879 35 23.1646 35H22.7443ZM29.76 29.9032V17.9355H25.557C24.9751 17.9355 24.5225 17.4839 24.5225 16.9355V12.7419H16.2135V29.9355H22.13V27.4194H20.4811C20.1255 27.4194 19.8345 27.129 19.8345 26.7742C19.8345 26.6452 19.8992 26.5161 19.9639 26.3871L22.518 23C22.7443 22.7419 23.0999 22.7097 23.3909 22.9032C23.4232 22.9355 25.9773 26.3871 25.9773 26.3871C26.2036 26.6774 26.139 27.0645 25.848 27.2903C25.751 27.3548 25.6217 27.4194 25.4924 27.4194H23.8112V29.9355L29.76 29.9032ZM26.43 16.0323H29.372L26.43 13.0968V16.0323Z" fill="white"/>
</svg>
