<svg width="20" height="20" viewBox="0 0 20 20" fill="none" xmlns="http://www.w3.org/2000/svg">
<path d="M20 3.33333V2C20 1.5 19.75 1 19.4167 0.583333C19 0.25 18.5 0 18 0H16.6667C16.1667 0 15.6667 0.25 15.25 0.583333C14.8333 1 14.6667 1.5 14.6667 2H5.33333C5.33333 1.5 5.08333 1 4.75 0.583333C4.33333 0.25 3.83333 0 3.33333 0H2C1.5 0 1 0.25 0.583333 0.583333C0.25 1 0 1.5 0 2V3.33333C0 3.83333 0.25 4.33333 0.583333 4.75C1 5.16667 1.5 5.33333 2 5.33333V14.6667C1.5 14.6667 1 14.9167 0.583333 15.25C0.25 15.6667 0 16.1667 0 16.6667V18C0 18.5 0.25 19 0.583333 19.4167C1 19.75 1.5 20 2 20H3.33333C3.83333 20 4.33333 19.75 4.75 19.4167C5.16667 19 5.33333 18.5 5.33333 18H14.6667C14.6667 18.5 14.9167 19 15.25 19.4167C15.6667 19.8333 16.1667 20 16.6667 20H18C18.5 20 19 19.75 19.4167 19.4167C19.8333 19 20 18.5 20 18V16.6667C20 16.1667 19.75 15.6667 19.4167 15.25C19 14.8333 18.5 14.6667 18 14.6667V5.33333C18.5 5.33333 19 5.08333 19.4167 4.75C19.75 4.33333 20 3.83333 20 3.33333ZM16.1667 2.08333C16.1667 1.91667 16.25 1.75 16.3333 1.66667C16.4167 1.58333 16.5833 1.5 16.75 1.5H17.9167C18.0833 1.5 18.25 1.58333 18.3333 1.66667C18.4167 1.75 18.5 1.91667 18.5 2.08333V3.25C18.5 3.41667 18.4167 3.58333 18.3333 3.66667C18.25 3.75 18.0833 3.83333 17.9167 3.83333H16.75C16.5833 3.83333 16.4167 3.75 16.3333 3.66667C16.25 3.58333 16.1667 3.41667 16.1667 3.25V2.08333ZM1.5 3.25V2.08333C1.5 1.91667 1.5 1.75 1.66667 1.66667C1.75 1.58333 1.91667 1.5 2.08333 1.5H3.25C3.41667 1.5 3.58333 1.58333 3.66667 1.66667C3.75 1.75 3.83333 1.91667 3.83333 2.08333V3.25C3.83333 3.41667 3.75 3.58333 3.66667 3.66667C3.58333 3.83333 3.41667 3.83333 3.25 3.83333H2.08333C1.91667 3.83333 1.75 3.83333 1.66667 3.66667C1.5 3.58333 1.5 3.41667 1.5 3.25ZM3.83333 17.9167C3.83333 18.0833 3.75 18.25 3.66667 18.3333C3.58333 18.4167 3.41667 18.5 3.25 18.5H2.08333C1.91667 18.5 1.75 18.4167 1.66667 18.3333C1.58333 18.25 1.5 18.0833 1.5 17.9167V16.75C1.5 16.5833 1.58333 16.4167 1.66667 16.3333C1.75 16.25 1.91667 16.1667 2.08333 16.1667H3.25C3.41667 16.1667 3.58333 16.25 3.66667 16.3333C3.75 16.4167 3.83333 16.5833 3.83333 16.75V17.9167ZM18.5 16.75V17.9167C18.5 18.0833 18.4167 18.25 18.3333 18.3333C18.25 18.4167 18.0833 18.5 17.9167 18.5H16.75C16.5833 18.5 16.4167 18.4167 16.3333 18.3333C16.25 18.25 16.1667 18.0833 16.1667 17.9167V16.75C16.1667 16.5833 16.25 16.4167 16.3333 16.3333C16.4167 16.25 16.5833 16.1667 16.75 16.1667H17.9167C18.0833 16.1667 18.25 16.25 18.3333 16.3333C18.4167 16.4167 18.5 16.5833 18.5 16.75ZM16.5 14.5833C16 14.5833 15.5 14.75 15.0833 15.1667C14.75 15.5 14.5 16 14.5 16.5833H5.33333C5.33333 16.0833 5.16667 15.5833 4.75 15.1667C4.41667 14.8333 3.91667 14.5833 3.33333 14.5833V5.41667C3.83333 5.41667 4.33333 5.25 4.75 4.83333C5.08333 4.5 5.33333 4 5.33333 3.41667H14.5C14.5 3.91667 14.6667 4.41667 15.0833 4.83333C15.4167 5.16667 15.9167 5.41667 16.5 5.41667V14.5833ZM14 6.66667C14 7 13.9167 7.16667 13.8333 7.25C13.75 7.33333 13.5 7.5 13.3333 7.5H10.75V13.3333C10.75 13.5833 10.5833 13.8333 10.3333 13.9167C10.1667 14 9.83333 14 9.66667 13.9167C9.5 13.8333 9.25 13.5833 9.25 13.3333V7.5H6.66667C6.41667 7.5 6.25 7.33333 6.08333 7.16667C6 7 6 6.58333 6.08333 6.33333C6.25 6.16667 6.41667 6 6.66667 6H13.3333C13.5 6 13.6667 6.08333 13.8333 6.16667C13.9167 6.33333 14 6.5 14 6.66667Z" fill="#2E3146"/>
</svg>
