<svg width="105" height="29" viewBox="0 0 105 29" fill="none" xmlns="http://www.w3.org/2000/svg">
<g id="Group">
<path id="Vector" d="M0.434692 22.936H5.46796V23.9329H3.46334V28.6449H2.43942V23.9329H0.434692V22.936Z" fill="#3C388D"/>
<path id="Vector_2" d="M7.53284 26.2079V22.936H8.55677V26.1824C8.55677 26.6482 8.69438 27.0317 8.96972 27.3327C9.24499 27.6338 9.60346 27.7843 10.0452 27.7843C10.4982 27.7843 10.8611 27.6338 11.1336 27.3327C11.406 27.0317 11.5423 26.6482 11.5423 26.1824V22.936H12.5748V26.2079C12.5748 26.9862 12.3439 27.6095 11.8822 28.0783C11.4203 28.5469 10.811 28.7813 10.0538 28.7813C9.29671 28.7813 8.68713 28.5469 8.22548 28.0783C7.76363 27.6097 7.53284 26.9862 7.53284 26.2079Z" fill="#3C388D"/>
<path id="Vector_3" d="M16.4637 22.936H19.3632V23.9329H16.524C16.3402 23.9329 16.194 23.9856 16.0851 24.0907C15.9762 24.1959 15.9216 24.3193 15.9216 24.4614C15.9216 24.5863 15.9604 24.6998 16.0379 24.8021C16.1153 24.9044 16.2285 24.9726 16.3777 25.0066L18.4684 25.5008C18.8815 25.603 19.1968 25.7976 19.4149 26.0844C19.6328 26.3714 19.7418 26.688 19.7418 27.0345C19.7418 27.4721 19.5912 27.8497 19.2902 28.1678C18.989 28.486 18.5746 28.6449 18.0469 28.6449H15.0183V27.648H18.0039C18.1988 27.648 18.3537 27.5883 18.4684 27.469C18.5831 27.3497 18.6406 27.2135 18.6406 27.0601C18.6406 26.9294 18.5976 26.8087 18.5115 26.6979C18.4254 26.5871 18.3051 26.5147 18.1501 26.4806L16.0508 25.9864C15.6435 25.8899 15.3353 25.701 15.126 25.4197C14.9164 25.1386 14.8118 24.8276 14.8118 24.4867C14.8118 24.0665 14.9582 23.7029 15.2506 23.396C15.5432 23.0894 15.9475 22.936 16.4637 22.936Z" fill="#3C388D"/>
<path id="Vector_4" d="M21.9185 26.2079V22.936H22.9425V26.1824C22.9425 26.6482 23.0802 27.0317 23.3555 27.3327C23.6308 27.6338 23.9891 27.7843 24.431 27.7843C24.8841 27.7843 25.2469 27.6338 25.5194 27.3327C25.7917 27.0317 25.928 26.6482 25.928 26.1824V22.936H26.9606V26.2079C26.9606 26.9862 26.7296 27.6095 26.268 28.0783C25.8061 28.5469 25.1968 28.7813 24.4396 28.7813C23.6825 28.7813 23.0729 28.5469 22.6112 28.0783C22.1494 27.6097 21.9185 26.9862 21.9185 26.2079Z" fill="#3C388D"/>
<path id="Vector_5" d="M30.5655 28.6449H29.533V22.936H32.4584C33.0319 22.936 33.4965 23.0766 33.8522 23.3578C34.2078 23.6389 34.3857 24.0295 34.3857 24.5293C34.3857 25.0577 34.1964 25.4553 33.8178 25.7224V25.7478C34.2708 25.8558 34.4974 26.1939 34.4974 26.7619V28.6449H33.4649V26.9578C33.4649 26.7193 33.3329 26.6 33.0692 26.6H30.5654L30.5655 28.6449ZM30.5655 23.9329V25.6456H32.3895C32.6763 25.6456 32.9086 25.5676 33.0864 25.4112C33.2642 25.2551 33.353 25.0463 33.353 24.785C33.353 24.5293 33.2613 24.3235 33.0778 24.1673C32.8941 24.0111 32.6648 23.9328 32.3895 23.9328L30.5655 23.9329Z" fill="#3C388D"/>
<path id="Vector_6" d="M40.4255 26.2079V22.936H41.4493V26.1824C41.4493 26.6482 41.587 27.0317 41.8624 27.3327C42.1376 27.6338 42.4961 27.7843 42.9378 27.7843C43.3909 27.7843 43.7538 27.6338 44.0262 27.3327C44.2987 27.0317 44.4349 26.6482 44.4349 26.1824V22.936H45.4675V26.2079C45.4675 26.9862 45.2365 27.6095 44.7748 28.0783C44.313 28.5469 43.7036 28.7813 42.9464 28.7813C42.1894 28.7813 41.5798 28.5469 41.1181 28.0783C40.6563 27.6097 40.4255 26.9862 40.4255 26.2079Z" fill="#3C388D"/>
<path id="Vector_7" d="M52.2989 26.9663V22.936H53.3313V28.6449H52.2989L49.0725 24.3505V28.6449H48.04V22.936H49.2446L52.2989 26.9663Z" fill="#3C388D"/>
<path id="Vector_8" d="M56.0586 28.6449V22.936H57.0912V28.6449H56.0586Z" fill="#3C388D"/>
<path id="Vector_9" d="M62.1845 27.4008L64.0602 22.936H65.17L62.7265 28.6449H61.5993L59.1559 22.936H60.2831L62.1845 27.4008Z" fill="#3C388D"/>
<path id="Vector_10" d="M71.5195 28.6449H67.1747V22.936H71.5195V23.9329H68.2073V25.2366H71.201V26.1994H68.2073V27.648H71.5195V28.6449Z" fill="#3C388D"/>
<path id="Vector_11" d="M75.0388 28.6449H74.0063V22.936H76.9314C77.5051 22.936 77.9697 23.0766 78.3254 23.3578C78.6805 23.6389 78.8587 24.0295 78.8587 24.5293C78.8587 25.0577 78.6696 25.4553 78.2908 25.7224V25.7478C78.744 25.8558 78.9702 26.1939 78.9702 26.7619V28.6449H77.9377V26.9578C77.9377 26.7193 77.8057 26.6 77.5422 26.6H75.0382L75.0388 28.6449ZM75.0388 23.9329V25.6456H76.8622C77.1494 25.6456 77.3814 25.5676 77.5595 25.4112C77.7371 25.2551 77.8262 25.0463 77.8262 24.785C77.8262 24.5293 77.7345 24.3235 77.5506 24.1673C77.3673 24.0111 77.1378 23.9328 76.8622 23.9328L75.0388 23.9329Z" fill="#3C388D"/>
<path id="Vector_12" d="M82.8683 22.936H85.7678V23.9329H82.9285C82.7446 23.9329 82.5985 23.9856 82.4895 24.0907C82.3806 24.1959 82.3261 24.3193 82.3261 24.4614C82.3261 24.5863 82.3645 24.6998 82.4421 24.8021C82.5196 24.9044 82.6331 24.9726 82.7824 25.0066L84.8731 25.5008C85.2858 25.603 85.6012 25.7976 85.8191 26.0844C86.037 26.3714 86.146 26.688 86.146 27.0345C86.146 27.4721 85.996 27.8497 85.6947 28.1678C85.3935 28.486 84.9788 28.6449 84.4514 28.6449H81.423V27.648H84.4084C84.6033 27.648 84.7584 27.5883 84.8731 27.469C84.9872 27.3497 85.0449 27.2135 85.0449 27.0601C85.0449 26.9294 85.0019 26.8087 84.916 26.6979C84.8301 26.5871 84.7097 26.5147 84.5546 26.4806L82.4555 25.9864C82.0479 25.8899 81.7396 25.701 81.5301 25.4197C81.3205 25.1386 81.216 24.8276 81.216 24.4867C81.216 24.0665 81.3628 23.7029 81.655 23.396C81.9473 23.0894 82.3517 22.936 82.8683 22.936Z" fill="#3C388D"/>
<path id="Vector_13" d="M88.4949 28.6449V22.936H89.5275V28.6449H88.4949Z" fill="#3C388D"/>
<path id="Vector_14" d="M91.7559 22.936H96.7891V23.9329H94.7843V28.6449H93.7601V23.9329H91.7559V22.936Z" fill="#3C388D"/>
<path id="Vector_15" d="M102.923 22.936H104.12L101.762 26.3016V28.6449H100.729V26.3443L98.3721 22.936H99.5937L101.254 25.3815L102.923 22.936Z" fill="#3C388D"/>
<path id="Vector_16" fill-rule="evenodd" clip-rule="evenodd" d="M11.2588 17.7429L11.2849 3.90928H18.2171V0.218628H0.000488281V3.90928H6.93269V17.7429H11.2588Z" fill="#3C388D"/>
<path id="Vector_17" fill-rule="evenodd" clip-rule="evenodd" d="M99.8918 0.218628H86.6267L86.6004 17.7171H90.9522V13.4328H99.8655C102.706 13.4328 104.999 11.1615 104.999 8.34841V5.30293C105.026 2.48971 102.732 0.218628 99.8918 0.218628ZM100.778 9.81958H90.9522V3.90939H100.778V9.81958Z" fill="#3C388D"/>
<path id="Vector_18" fill-rule="evenodd" clip-rule="evenodd" d="M48.9164 17.7429H60.2006V14.0523H48.1345V3.90928H60.2006V0.218628H48.9164C46.0757 0.218628 43.7823 2.48982 43.7823 5.30294V12.6585C43.7823 15.4719 46.0758 17.7429 48.9164 17.7429Z" fill="#3C388D"/>
<path id="Vector_19" fill-rule="evenodd" clip-rule="evenodd" d="M32.6892 17.7171L42.0596 0.218628H37.5962L31.8837 10.886L25.5454 0.218628H21.0819L27.9079 11.9005C28.4547 12.8362 29.4421 13.4102 30.509 13.4129L30.5307 13.413L28.2258 17.7172L32.6892 17.7171Z" fill="#3C388D"/>
<path id="Vector_20" fill-rule="evenodd" clip-rule="evenodd" d="M72.4117 13.413L72.4329 13.4131L70.1281 17.7174H74.5915L83.9624 0.218872H79.4984L73.7865 10.8863L67.4478 0.218872H62.9845L69.8102 11.9008C70.3569 12.8365 71.3446 13.4104 72.4117 13.413Z" fill="#3C388D"/>
</g>
</svg>
